<mxfile host="Electron" modified="2024-01-08T13:58:26.769Z" agent="Mozilla/5.0 (Windows NT 10.0; Win64; x64) AppleWebKit/537.36 (KHTML, like Gecko) draw.io/22.1.16 Chrome/120.0.6099.109 Electron/28.1.0 Safari/537.36" etag="uOjJ_6W0_vMUUxxX11Ua" version="22.1.16" type="device">
  <diagram name="Page-1" id="ZUQgte62Madrcj-jCHu3">
    <mxGraphModel dx="893" dy="543" grid="1" gridSize="10" guides="1" tooltips="1" connect="1" arrows="1" fold="1" page="1" pageScale="1" pageWidth="850" pageHeight="1100" background="none" math="0" shadow="0">
      <root>
        <mxCell id="0" />
        <mxCell id="1" parent="0" />
        <mxCell id="hLnkSRGozWpVr84KyX-k-1" value="" style="endArrow=none;html=1;rounded=0;" parent="1" edge="1">
          <mxGeometry width="50" height="50" relative="1" as="geometry">
            <mxPoint x="240" y="600" as="sourcePoint" />
            <mxPoint x="720" y="600" as="targetPoint" />
          </mxGeometry>
        </mxCell>
        <mxCell id="hLnkSRGozWpVr84KyX-k-2" value="" style="endArrow=classic;html=1;rounded=0;" parent="1" edge="1">
          <mxGeometry width="50" height="50" relative="1" as="geometry">
            <mxPoint x="80" y="600.0000000000002" as="sourcePoint" />
            <mxPoint x="200" y="600.0000000000002" as="targetPoint" />
          </mxGeometry>
        </mxCell>
        <mxCell id="hLnkSRGozWpVr84KyX-k-3" value="" style="endArrow=classic;html=1;rounded=0;" parent="1" edge="1">
          <mxGeometry width="50" height="50" relative="1" as="geometry">
            <mxPoint x="80" y="600.0000000000002" as="sourcePoint" />
            <mxPoint x="80" y="480.0000000000002" as="targetPoint" />
          </mxGeometry>
        </mxCell>
        <mxCell id="hLnkSRGozWpVr84KyX-k-4" value="" style="ellipse;whiteSpace=wrap;html=1;aspect=fixed;fillColor=none;connectable=1;allowArrows=0;" parent="1" vertex="1">
          <mxGeometry x="70" y="590.0000000000002" width="20" height="20" as="geometry" />
        </mxCell>
        <mxCell id="hLnkSRGozWpVr84KyX-k-5" value="" style="endArrow=none;html=1;rounded=0;exitX=1;exitY=1;exitDx=0;exitDy=0;entryX=0;entryY=0;entryDx=0;entryDy=0;" parent="1" source="hLnkSRGozWpVr84KyX-k-4" target="hLnkSRGozWpVr84KyX-k-4" edge="1">
          <mxGeometry width="50" height="50" relative="1" as="geometry">
            <mxPoint x="130" y="620.0000000000002" as="sourcePoint" />
            <mxPoint x="70" y="590.0000000000002" as="targetPoint" />
          </mxGeometry>
        </mxCell>
        <mxCell id="hLnkSRGozWpVr84KyX-k-7" value="&lt;font face=&quot;LM Sans&quot;&gt;x&lt;/font&gt;" style="text;strokeColor=none;align=center;fillColor=none;html=1;verticalAlign=middle;whiteSpace=wrap;rounded=0;" parent="1" vertex="1">
          <mxGeometry x="160" y="600.0000000000002" width="60" height="20" as="geometry" />
        </mxCell>
        <mxCell id="hLnkSRGozWpVr84KyX-k-8" value="&lt;font face=&quot;LM Sans&quot;&gt;z&lt;/font&gt;" style="text;strokeColor=none;align=center;fillColor=none;html=1;verticalAlign=middle;whiteSpace=wrap;rounded=0;" parent="1" vertex="1">
          <mxGeometry x="40" y="470.0000000000002" width="60" height="30" as="geometry" />
        </mxCell>
        <mxCell id="hLnkSRGozWpVr84KyX-k-10" value="" style="rounded=0;whiteSpace=wrap;html=1;fillStyle=auto;fillOpacity=100;strokeOpacity=100;fillColor=#bac8d3;strokeColor=#23445d;labelPadding=0;" parent="1" vertex="1">
          <mxGeometry x="240" y="310" width="30" height="290" as="geometry" />
        </mxCell>
        <mxCell id="hLnkSRGozWpVr84KyX-k-11" value="&lt;font face=&quot;LM Sans&quot;&gt;Wall&lt;/font&gt;" style="text;html=1;align=center;verticalAlign=middle;resizable=0;points=[];autosize=1;strokeColor=none;fillColor=none;fontSize=16;" parent="1" vertex="1">
          <mxGeometry x="220" y="280" width="50" height="30" as="geometry" />
        </mxCell>
        <mxCell id="hLnkSRGozWpVr84KyX-k-12" value="" style="endArrow=none;html=1;rounded=0;" parent="1" edge="1">
          <mxGeometry width="50" height="50" relative="1" as="geometry">
            <mxPoint x="720" y="600" as="sourcePoint" />
            <mxPoint x="720" y="360" as="targetPoint" />
          </mxGeometry>
        </mxCell>
        <mxCell id="hLnkSRGozWpVr84KyX-k-14" value="" style="triangle;whiteSpace=wrap;html=1;rotation=-15;" parent="1" vertex="1">
          <mxGeometry x="710" y="340" width="20" height="24.15" as="geometry" />
        </mxCell>
        <mxCell id="hLnkSRGozWpVr84KyX-k-15" value="" style="endArrow=none;html=1;rounded=0;entryX=0;entryY=0.5;entryDx=0;entryDy=0;exitX=1;exitY=0.5;exitDx=0;exitDy=0;" parent="1" source="hLnkSRGozWpVr84KyX-k-14" target="hLnkSRGozWpVr84KyX-k-14" edge="1">
          <mxGeometry width="50" height="50" relative="1" as="geometry">
            <mxPoint x="530" y="440" as="sourcePoint" />
            <mxPoint x="700" y="360" as="targetPoint" />
          </mxGeometry>
        </mxCell>
        <mxCell id="URDXG4eaGIeU7csvKVch-1" value="" style="endArrow=classic;html=1;rounded=0;exitX=0.5;exitY=0.5;exitDx=0;exitDy=0;exitPerimeter=0;fillColor=#dae8fc;strokeColor=#6c8ebf;" parent="1" edge="1">
          <mxGeometry width="50" height="50" relative="1" as="geometry">
            <mxPoint x="475" y="570" as="sourcePoint" />
            <mxPoint x="520" y="570" as="targetPoint" />
            <Array as="points">
              <mxPoint x="500" y="570" />
            </Array>
          </mxGeometry>
        </mxCell>
        <mxCell id="URDXG4eaGIeU7csvKVch-3" value="" style="endArrow=none;html=1;rounded=0;exitX=1;exitY=0.144;exitDx=0;exitDy=0;exitPerimeter=0;dashed=1;" parent="1" source="hLnkSRGozWpVr84KyX-k-10" edge="1">
          <mxGeometry width="50" height="50" relative="1" as="geometry">
            <mxPoint x="230" y="351.88" as="sourcePoint" />
            <mxPoint x="710" y="351.88" as="targetPoint" />
          </mxGeometry>
        </mxCell>
        <mxCell id="mOBbaGmnj86V9tQcYRCT-1" value="" style="endArrow=classic;html=1;rounded=0;exitX=0;exitY=0.5;exitDx=0;exitDy=0;entryX=1.078;entryY=0.56;entryDx=0;entryDy=0;entryPerimeter=0;" parent="1" source="hLnkSRGozWpVr84KyX-k-14" target="hLnkSRGozWpVr84KyX-k-10" edge="1">
          <mxGeometry width="50" height="50" relative="1" as="geometry">
            <mxPoint x="430" y="470" as="sourcePoint" />
            <mxPoint x="480" y="420" as="targetPoint" />
          </mxGeometry>
        </mxCell>
        <mxCell id="mOBbaGmnj86V9tQcYRCT-2" value="" style="endArrow=classic;html=1;rounded=0;exitX=1.111;exitY=0.563;exitDx=0;exitDy=0;exitPerimeter=0;" parent="1" source="hLnkSRGozWpVr84KyX-k-10" edge="1">
          <mxGeometry width="50" height="50" relative="1" as="geometry">
            <mxPoint x="720" y="365" as="sourcePoint" />
            <mxPoint x="450" y="560" as="targetPoint" />
          </mxGeometry>
        </mxCell>
        <mxCell id="mOBbaGmnj86V9tQcYRCT-3" value="" style="endArrow=classic;html=1;rounded=0;fillColor=#f8cecc;strokeColor=#FF0000;gradientColor=#ea6b66;entryX=-0.247;entryY=0.674;entryDx=0;entryDy=0;entryPerimeter=0;" parent="1" target="hLnkSRGozWpVr84KyX-k-14" edge="1">
          <mxGeometry width="50" height="50" relative="1" as="geometry">
            <mxPoint x="290" y="470" as="sourcePoint" />
            <mxPoint x="290" y="470" as="targetPoint" />
          </mxGeometry>
        </mxCell>
        <mxCell id="mOBbaGmnj86V9tQcYRCT-4" value="" style="endArrow=classic;html=1;rounded=0;fillColor=#f8cecc;strokeColor=#FF0000;gradientColor=#ea6b66;" parent="1" edge="1">
          <mxGeometry width="50" height="50" relative="1" as="geometry">
            <mxPoint x="460" y="560" as="sourcePoint" />
            <mxPoint x="280" y="470" as="targetPoint" />
          </mxGeometry>
        </mxCell>
        <mxCell id="mOBbaGmnj86V9tQcYRCT-5" value="&lt;font face=&quot;LM Sans&quot;&gt;gNB&lt;/font&gt;" style="text;html=1;align=center;verticalAlign=middle;resizable=0;points=[];autosize=1;strokeColor=none;fillColor=none;fontSize=16;" parent="1" vertex="1">
          <mxGeometry x="695" y="310" width="50" height="30" as="geometry" />
        </mxCell>
        <mxCell id="mOBbaGmnj86V9tQcYRCT-6" value="&lt;font face=&quot;LM Sans&quot; color=&quot;#7ea6e0&quot;&gt;v&lt;/font&gt;" style="text;html=1;align=center;verticalAlign=middle;resizable=0;points=[];autosize=1;fillColor=none;strokeColor=none;" parent="1" vertex="1">
          <mxGeometry x="500" y="565" width="30" height="30" as="geometry" />
        </mxCell>
        <mxCell id="mOBbaGmnj86V9tQcYRCT-7" value="" style="verticalLabelPosition=bottom;verticalAlign=top;html=1;shape=mxgraph.basic.arc;startAngle=0.3307072336085476;endAngle=0.40684431393247933;rotation=135;" parent="1" vertex="1">
          <mxGeometry x="670" y="330" width="40" height="70" as="geometry" />
        </mxCell>
        <mxCell id="mOBbaGmnj86V9tQcYRCT-8" value="&lt;font style=&quot;font-size: 16px;&quot; face=&quot;LM Sans&quot;&gt;Ï†&lt;/font&gt;" style="text;html=1;align=center;verticalAlign=middle;resizable=0;points=[];autosize=1;strokeColor=none;fillColor=none;fontSize=14;" parent="1" vertex="1">
          <mxGeometry x="640" y="320" width="30" height="30" as="geometry" />
        </mxCell>
        <mxCell id="mOBbaGmnj86V9tQcYRCT-10" value="" style="endArrow=none;dashed=1;html=1;dashPattern=1 3;strokeWidth=2;rounded=0;" parent="1" edge="1">
          <mxGeometry width="50" height="50" relative="1" as="geometry">
            <mxPoint x="270" y="470" as="sourcePoint" />
            <mxPoint x="720.6666666666666" y="470" as="targetPoint" />
          </mxGeometry>
        </mxCell>
        <mxCell id="_wE6HDTqBSZ1zbsvqHlG-1" style="edgeStyle=orthogonalEdgeStyle;rounded=0;orthogonalLoop=1;jettySize=auto;html=1;exitX=0.5;exitY=1;exitDx=0;exitDy=0;" edge="1" parent="1" source="hLnkSRGozWpVr84KyX-k-8" target="hLnkSRGozWpVr84KyX-k-8">
          <mxGeometry relative="1" as="geometry" />
        </mxCell>
        <mxCell id="_wE6HDTqBSZ1zbsvqHlG-2" value="" style="endArrow=none;html=1;rounded=0;exitX=0;exitY=1;exitDx=0;exitDy=0;entryX=1;entryY=0;entryDx=0;entryDy=0;" edge="1" parent="1" source="hLnkSRGozWpVr84KyX-k-4" target="hLnkSRGozWpVr84KyX-k-4">
          <mxGeometry width="50" height="50" relative="1" as="geometry">
            <mxPoint x="73" y="607" as="sourcePoint" />
            <mxPoint x="90" y="590" as="targetPoint" />
          </mxGeometry>
        </mxCell>
        <mxCell id="_wE6HDTqBSZ1zbsvqHlG-3" value="" style="shape=mxgraph.signs.people.walking;html=1;pointerEvents=1;fillColor=#dae8fc;strokeColor=#6c8ebf;verticalLabelPosition=bottom;verticalAlign=top;align=center;sketch=0;" vertex="1" parent="1">
          <mxGeometry x="460" y="540" width="30" height="59" as="geometry" />
        </mxCell>
        <mxCell id="_wE6HDTqBSZ1zbsvqHlG-5" value="&lt;font face=&quot;LM Sans&quot;&gt;y&lt;/font&gt;" style="text;html=1;align=center;verticalAlign=middle;resizable=0;points=[];autosize=1;strokeColor=none;fillColor=none;" vertex="1" parent="1">
          <mxGeometry x="50" y="595" width="30" height="30" as="geometry" />
        </mxCell>
        <mxCell id="_wE6HDTqBSZ1zbsvqHlG-6" value="&lt;font face=&quot;LM Sans&quot;&gt;23 m&lt;/font&gt;" style="shape=dimension;whiteSpace=wrap;html=1;align=center;points=[];verticalAlign=bottom;spacingBottom=3;labelBackgroundColor=none;" vertex="1" parent="1">
          <mxGeometry x="270" y="600" width="450" height="30" as="geometry" />
        </mxCell>
        <mxCell id="_wE6HDTqBSZ1zbsvqHlG-7" value="&lt;font face=&quot;LM Sans&quot;&gt;5,12 m&lt;/font&gt;" style="shape=dimension;direction=north;whiteSpace=wrap;html=1;align=center;points=[];verticalAlign=bottom;labelBackgroundColor=none;horizontal=0;spacingBottom=3;" vertex="1" parent="1">
          <mxGeometry x="720" y="360" width="30" height="240" as="geometry" />
        </mxCell>
      </root>
    </mxGraphModel>
  </diagram>
</mxfile>
